# Blender 5.1.2
# www.blender.org
o Text.001
v 0.000001 -3.466985 4.623920
v 0.000001 -3.466985 4.960535
v 0.000001 -10.553084 6.389929
v 0.000001 -10.553084 5.902081
v 0.000001 -8.476836 5.482532
v 0.000001 -8.476836 4.067774
v 0.000001 -10.553084 3.623833
v 0.000001 -10.553084 3.135985
v 0.000001 -5.016425 4.799546
v 0.000001 -7.567832 4.262914
v 0.000001 -7.567832 5.297150
v 0.000001 -7.082343 6.716786
v 0.000001 -7.082343 7.833957
v 0.000001 -7.991345 7.833957
v 0.000001 -7.991345 7.194877
v 0.000001 -9.437490 7.194877
v 0.000001 -9.475526 7.252312
v 0.000001 -9.511948 7.310018
v 0.000001 -9.546435 7.368063
v 0.000001 -9.578660 7.426515
v 0.000001 -9.608302 7.485440
v 0.000001 -9.635042 7.544908
v 0.000001 -9.658553 7.604985
v 0.000001 -9.678512 7.665740
v 0.000001 -9.694598 7.727241
v 0.000001 -9.706489 7.789554
v 0.000001 -9.713862 7.852748
v 0.000001 -9.716389 7.916892
v 0.000001 -9.693732 8.109405
v 0.000001 -9.627246 8.291043
v 0.000001 -9.519156 8.460689
v 0.000001 -9.371685 8.617224
v 0.000001 -9.187057 8.759530
v 0.000001 -8.967491 8.886489
v 0.000001 -8.715221 8.996983
v 0.000001 -8.432460 9.089894
v 0.000001 -8.121436 9.164104
v 0.000001 -7.784373 9.218496
v 0.000001 -7.423495 9.251951
v 0.000001 -7.041022 9.263350
v 0.000001 -6.666828 9.251894
v 0.000001 -6.310493 9.218451
v 0.000001 -5.974817 9.164410
v 0.000001 -5.662597 9.091159
v 0.000001 -5.376630 9.000089
v 0.000001 -5.119717 8.892587
v 0.000001 -4.894653 8.770043
v 0.000001 -4.704237 8.633846
v 0.000001 -4.551268 8.485386
v 0.000001 -4.438540 8.326051
v 0.000001 -4.368848 8.157229
v 0.000001 -4.345000 7.980311
v 0.000001 -4.349938 7.880212
v 0.000001 -4.364704 7.779978
v 0.000001 -4.389225 7.679676
v 0.000001 -4.423430 7.579373
v 0.000001 -4.467247 7.479138
v 0.000001 -4.520603 7.379039
v 0.000001 -4.583430 7.279143
v 0.000001 -4.655654 7.179519
v 0.000001 -4.737204 7.080233
v 0.000001 -4.828006 6.981353
v 0.000001 -4.927990 6.882948
v 0.000001 -5.037086 6.785085
v 0.000001 -4.014455 6.785085
v 0.000001 -3.905019 6.910613
v 0.000001 -3.808676 7.027044
v 0.000001 -3.724742 7.135649
v 0.000001 -3.652536 7.237699
v 0.000001 -3.591377 7.334464
v 0.000001 -3.540584 7.427214
v 0.000001 -3.499475 7.517220
v 0.000001 -3.467367 7.605753
v 0.000001 -3.443582 7.694082
v 0.000001 -3.427435 7.783478
v 0.000001 -3.418248 7.875213
v 0.000001 -3.415339 7.970555
v 0.000001 -3.447637 8.218849
v 0.000001 -3.542020 8.455150
v 0.000001 -3.694722 8.677629
v 0.000001 -3.901978 8.884456
v 0.000001 -4.160020 9.073802
v 0.000001 -4.465083 9.243837
v 0.000001 -4.813401 9.392732
v 0.000001 -5.201211 9.518658
v 0.000001 -5.624743 9.619784
v 0.000001 -6.080230 9.694283
v 0.000001 -6.563910 9.740324
v 0.000001 -7.072013 9.756077
v 0.000001 -7.576321 9.740705
v 0.000001 -8.054090 9.695706
v 0.000001 -8.502016 9.622757
v 0.000001 -8.916802 9.523537
v 0.000001 -9.295147 9.399719
v 0.000001 -9.633750 9.252984
v 0.000001 -9.929316 9.085007
v 0.000001 -10.178541 8.897465
v 0.000001 -10.378125 8.692036
v 0.000001 -10.524773 8.470395
v 0.000001 -10.615181 8.234221
v 0.000001 -10.646051 7.985190
v 0.000001 -10.642560 7.871353
v 0.000001 -10.631896 7.761141
v 0.000001 -10.613771 7.653911
v 0.000001 -10.587901 7.549018
v 0.000001 -10.553996 7.445819
v 0.000001 -10.511769 7.343671
v 0.000001 -10.460933 7.241929
v 0.000001 -10.401207 7.139949
v 0.000001 -10.332292 7.037089
v 0.000001 -10.253913 6.932704
v 0.000001 -10.165775 6.826151
v 0.000001 -10.067594 6.716786
v 0.000001 9.347857 -9.894159
v 0.000001 9.347857 -8.006189
v 0.000001 3.976265 -8.006189
v 0.000001 3.976265 -9.938065
v 0.000001 4.669374 -9.938065
v 0.000001 4.669374 -8.484280
v 0.000001 6.339135 -8.484280
v 0.000001 6.339135 -9.845373
v 0.000001 7.032244 -9.845373
v 0.000001 7.032244 -8.484280
v 0.000001 8.654749 -8.484280
v 0.000001 8.654749 -9.894159
v 0.000001 9.347857 -7.269539
v 0.000001 9.347857 -6.791449
v 0.000001 7.008615 -6.791449
v 0.000001 7.008615 -4.927871
v 0.000001 9.347857 -4.927871
v 0.000001 9.347857 -4.449780
v 0.000001 3.976265 -4.449780
v 0.000001 3.976265 -4.927871
v 0.000001 6.315507 -4.927871
v 0.000001 6.315507 -6.791449
v 0.000001 3.976265 -6.791449
v 0.000001 3.976265 -7.269539
v 0.000002 -10.107576 -11.850786
v 0.000002 -10.137184 -11.719179
v 0.000002 -10.164613 -11.587854
v 0.000002 -10.189786 -11.456671
v 0.000002 -10.212629 -11.325487
v 0.000002 -10.233067 -11.194160
v 0.000002 -10.251022 -11.062555
v 0.000002 -10.266422 -10.930527
v 0.000002 -10.279191 -10.797935
v 0.000002 -10.289251 -10.664639
v 0.000002 -10.296533 -10.530499
v 0.000002 -10.300956 -10.395372
v 0.000002 -10.302447 -10.259119
v 0.000002 -10.298995 -10.048555
v 0.000002 -10.288663 -9.852844
v 0.000002 -10.271491 -9.672062
v 0.000002 -10.247513 -9.506273
v 0.000002 -10.216771 -9.355553
v 0.000002 -10.179298 -9.219969
v 0.000002 -10.135136 -9.099592
v 0.000002 -10.084319 -8.994492
v 0.000002 -10.026887 -8.904741
v 0.000002 -9.962876 -8.830408
v 0.000002 -9.892323 -8.771564
v 0.000002 -9.815268 -8.728279
v 0.000002 -9.815268 -11.931890
v 0.000002 -9.671888 -11.916033
v 0.000002 -9.541240 -11.869234
v 0.000002 -9.423270 -11.792652
v 0.000002 -9.317932 -11.687452
v 0.000002 -9.225175 -11.554796
v 0.000002 -9.144946 -11.395844
v 0.000002 -9.077200 -11.211758
v 0.000002 -9.021882 -11.003698
v 0.000002 -8.978945 -10.772831
v 0.000002 -8.948338 -10.520313
v 0.000002 -8.930010 -10.247307
v 0.000002 -8.923913 -9.954977
v 0.000002 -8.930729 -9.649008
v 0.000002 -8.950777 -9.360779
v 0.000002 -8.983457 -9.091982
v 0.000002 -9.028164 -8.844305
v 0.000002 -9.084300 -8.619438
v 0.000002 -9.151262 -8.419071
v 0.000002 -9.228449 -8.244892
v 0.000002 -9.315259 -8.098595
v 0.000002 -9.411091 -7.981867
v 0.000002 -9.515343 -7.896399
v 0.000002 -9.627414 -7.843878
v 0.000002 -9.746702 -7.825994
v 0.000002 -9.857676 -7.842374
v 0.000002 -9.965966 -7.891139
v 0.000002 -10.070248 -7.971727
v 0.000002 -10.169191 -8.083574
v 0.000002 -10.261470 -8.226116
v 0.000002 -10.345753 -8.398792
v 0.000002 -10.420712 -8.601036
v 0.000002 -10.485023 -8.832287
v 0.000002 -10.537354 -9.091980
v 0.000002 -10.576377 -9.379553
v 0.000002 -10.600765 -9.694441
v 0.000002 -10.609188 -10.036083
v 0.000002 -10.607906 -10.223188
v 0.000002 -10.604044 -10.400019
v 0.000002 -10.597573 -10.567694
v 0.000002 -10.588472 -10.727346
v 0.000002 -10.576715 -10.880096
v 0.000002 -10.562275 -11.027075
v 0.000002 -10.545130 -11.169405
v 0.000002 -10.525253 -11.308216
v 0.000002 -10.502619 -11.444635
v 0.000002 -10.477202 -11.579784
v 0.000002 -10.448980 -11.714792
v 0.000002 -10.417927 -11.850786
v 0.000002 -9.602353 -8.748552
v 0.000002 -9.540648 -8.785082
v 0.000002 -9.483716 -8.833788
v 0.000002 -9.431671 -8.894604
v 0.000002 -9.384626 -8.967461
v 0.000002 -9.342692 -9.052282
v 0.000002 -9.305985 -9.149006
v 0.000002 -9.274616 -9.257555
v 0.000002 -9.248697 -9.377859
v 0.000002 -9.228342 -9.509853
v 0.000002 -9.213662 -9.653461
v 0.000002 -9.204772 -9.808617
v 0.000002 -9.201784 -9.975254
v 0.000002 -9.204979 -10.129787
v 0.000002 -9.214415 -10.273764
v 0.000002 -9.229864 -10.406754
v 0.000002 -9.251102 -10.528341
v 0.000002 -9.277905 -10.638098
v 0.000002 -9.310046 -10.735605
v 0.000002 -9.347299 -10.820440
v 0.000002 -9.389439 -10.892183
v 0.000002 -9.436239 -10.950405
v 0.000002 -9.487476 -10.994688
v 0.000002 -9.542922 -11.024611
v 0.000002 -9.602353 -11.039745
v 0.000002 -3.529573 -7.391501
v 0.000002 -3.529573 -6.947560
v 0.000002 -6.097294 -5.840146
v 0.000001 -3.529573 -4.737609
v 0.000001 -3.529573 -4.288790
v 0.000002 -9.783806 -4.288790
v 0.000002 -9.783806 -4.766880
v 0.000001 -4.914309 -4.766880
v 0.000001 -4.914309 -4.776639
v 0.000002 -7.335301 -5.801118
v 0.000002 -7.335301 -5.879173
v 0.000002 -4.914309 -6.903653
v 0.000002 -4.914309 -6.913411
v 0.000002 -9.783806 -6.913411
v 0.000002 -9.783806 -7.391501
v -0.000000 8.743566 5.136335
v -0.000000 8.743566 7.917066
v -0.000000 8.143410 7.917066
v -0.000000 8.143410 6.765746
v 0.000000 4.092361 6.765746
v 0.000000 4.092361 6.287655
v -0.000000 8.143410 6.287655
v -0.000000 8.143410 5.136335
v -0.118257 0.257625 0.246890
v -0.118257 0.494140 0.246890
v -0.118257 0.257625 0.010375
v -0.118257 0.494140 0.010375
v 0.118257 0.257625 0.246889
v 0.118257 0.494140 0.246889
v 0.118257 0.257625 0.010375
v 0.118257 0.494140 0.010375
v -0.118257 0.257625 13.610121
v -0.118257 0.494140 13.610121
v 0.118257 0.494140 13.610121
v 0.118257 0.257625 13.610121
v -0.118257 12.684296 0.246890
v -0.118257 12.684296 0.010375
v 0.118257 12.684296 0.010375
v 0.118257 12.684296 0.246889
v -0.118257 0.494140 -15.408335
v -0.118257 0.257625 -15.408335
v 0.118257 0.257625 -15.408335
v 0.118257 0.494140 -15.408335
v -0.118257 -13.938957 0.010375
v -0.118257 -13.938957 0.246890
v 0.118257 -13.938957 0.010375
v 0.118257 -13.938957 0.246889
s 0
f 3 4 5
f 5 11 3
f 11 2 3
f 1 9 10
f 6 7 8
f 6 8 10
f 1 10 8
f 6 10 5
f 11 5 10
f 2 11 9
f 9 1 2
f 88 89 40
f 93 94 36
f 36 37 93
f 92 93 37
f 37 38 92
f 91 92 38
f 90 91 38
f 38 39 90
f 89 90 39
f 40 89 39
f 88 40 41
f 87 88 41
f 41 42 87
f 86 87 42
f 42 43 86
f 85 86 43
f 43 44 85
f 84 85 44
f 44 45 84
f 45 83 84
f 48 49 80
f 98 32 97
f 32 33 97
f 81 47 48
f 48 80 81
f 79 50 78
f 29 101 28
f 101 29 100
f 30 100 29
f 78 50 51
f 51 52 78
f 52 77 78
f 100 30 99
f 30 31 99
f 98 99 31
f 32 98 31
f 50 79 49
f 80 49 79
f 97 33 96
f 33 34 96
f 95 96 34
f 34 35 95
f 94 95 35
f 36 94 35
f 83 45 46
f 82 83 46
f 46 47 82
f 47 81 82
f 55 74 54
f 75 54 74
f 27 102 103
f 26 27 103
f 103 25 26
f 24 104 105
f 105 23 24
f 21 22 106
f 106 22 105
f 23 105 22
f 57 71 56
f 71 72 56
f 25 103 104
f 104 24 25
f 56 72 55
f 72 73 55
f 74 55 73
f 18 19 108
f 108 109 18
f 109 17 18
f 58 59 69
f 70 58 69
f 64 65 63
f 63 65 62
f 65 66 62
f 61 62 66
f 67 61 66
f 17 109 110
f 16 17 110
f 110 111 16
f 111 112 16
f 112 113 16
f 15 16 113
f 113 12 15
f 61 67 60
f 67 68 60
f 59 60 68
f 69 59 68
f 21 106 107
f 20 21 107
f 107 108 20
f 108 19 20
f 13 14 15
f 15 12 13
f 58 70 57
f 71 57 70
f 28 101 102
f 102 27 28
f 54 75 53
f 75 76 53
f 52 53 76
f 77 52 76
f 116 119 120
f 115 116 120
f 120 123 115
f 123 124 115
f 119 116 117
f 117 118 119
f 123 120 121
f 121 122 123
f 125 114 124
f 115 124 114
f 132 133 134
f 131 132 134
f 134 129 131
f 129 130 131
f 135 136 137
f 128 135 137
f 137 126 128
f 126 127 128
f 129 134 135
f 135 128 129
f 189 190 160
f 160 161 189
f 188 189 161
f 161 162 188
f 187 188 162
f 162 212 187
f 186 187 212
f 185 186 212
f 212 213 185
f 184 185 213
f 213 214 184
f 183 184 214
f 214 215 183
f 182 183 215
f 153 198 152
f 224 175 223
f 198 153 197
f 154 197 153
f 176 222 223
f 223 175 176
f 197 154 196
f 155 196 154
f 220 221 178
f 177 178 221
f 221 222 177
f 222 176 177
f 196 155 195
f 155 156 195
f 194 195 156
f 156 157 194
f 193 194 157
f 192 193 157
f 157 158 192
f 191 192 158
f 158 159 191
f 190 191 159
f 160 190 159
f 182 215 216
f 181 182 216
f 216 217 181
f 180 181 217
f 217 218 180
f 218 219 180
f 179 180 219
f 219 220 179
f 220 178 179
f 151 200 150
f 226 174 225
f 150 200 201
f 201 149 150
f 227 173 226
f 174 226 173
f 147 203 204
f 204 146 147
f 149 201 202
f 148 149 202
f 202 203 148
f 203 147 148
f 227 228 172
f 173 227 172
f 207 208 144
f 208 143 144
f 139 211 138
f 141 210 211
f 140 141 211
f 211 139 140
f 143 208 209
f 142 143 209
f 209 210 142
f 210 141 142
f 163 164 236
f 164 165 236
f 235 236 165
f 165 166 235
f 146 204 205
f 205 206 146
f 145 146 206
f 206 207 145
f 207 144 145
f 235 166 234
f 233 234 166
f 166 167 233
f 232 233 167
f 167 168 232
f 231 232 168
f 168 169 231
f 230 231 169
f 169 170 230
f 229 230 170
f 170 171 229
f 228 229 171
f 172 228 171
f 200 151 199
f 198 199 151
f 152 198 151
f 212 162 236
f 175 224 225
f 225 174 175
f 163 236 162
f 241 242 244
f 240 241 244
f 244 245 240
f 239 247 248
f 251 237 249
f 238 249 237
f 249 238 248
f 239 248 238
f 247 239 246
f 245 246 239
f 240 245 239
f 242 243 244
f 251 249 250
f 253 254 255
f 259 252 258
f 255 256 257
f 257 258 255
f 258 252 255
f 253 255 252
f 262 280 260
f 263 277 262
f 267 264 266
f 260 269 261
f 260 283 264
f 267 275 265
f 264 268 260
f 261 270 265
f 265 271 264
f 280 281 260
f 265 272 261
f 263 274 267
f 266 279 267
f 262 278 266
f 267 276 263
f 266 280 262
f 260 261 263
f 264 282 266
f 263 276 277
f 267 265 264
f 260 268 269
f 260 281 283
f 267 274 275
f 264 271 268
f 261 269 270
f 265 270 271
f 261 272 273
f 265 275 272
f 263 273 274
f 266 278 279
f 262 277 278
f 267 279 276
f 266 282 280
f 261 273 263
f 264 283 282
f 260 263 262
