# Blender 5.1.1
# www.blender.org
o Text
v 3.403000 -0.000000 -0.449000 1.0000 1.0000 1.0000
v 3.403000 0.000000 0.000000 1.0000 1.0000 1.0000
v 3.492000 0.000000 0.000000 1.0000 1.0000 1.0000
v 3.492000 -0.000000 -0.235000 1.0000 1.0000 1.0000
v 3.492980 -0.000000 -0.253891 1.0000 1.0000 1.0000
v 3.495838 -0.000000 -0.271958 1.0000 1.0000 1.0000
v 3.500453 -0.000000 -0.289047 1.0000 1.0000 1.0000
v 3.506704 -0.000000 -0.305000 1.0000 1.0000 1.0000
v 3.514468 -0.000000 -0.319661 1.0000 1.0000 1.0000
v 3.523625 -0.000000 -0.332875 1.0000 1.0000 1.0000
v 3.534053 -0.000000 -0.344484 1.0000 1.0000 1.0000
v 3.545630 -0.000000 -0.354333 1.0000 1.0000 1.0000
v 3.558234 -0.000000 -0.362266 1.0000 1.0000 1.0000
v 3.571745 -0.000000 -0.368125 1.0000 1.0000 1.0000
v 3.586041 -0.000000 -0.371755 1.0000 1.0000 1.0000
v 3.601000 -0.000000 -0.373000 1.0000 1.0000 1.0000
v 3.606529 -0.000000 -0.372631 1.0000 1.0000 1.0000
v 3.612565 -0.000000 -0.371546 1.0000 1.0000 1.0000
v 3.619031 -0.000000 -0.369781 1.0000 1.0000 1.0000
v 3.625852 -0.000000 -0.367370 1.0000 1.0000 1.0000
v 3.632950 -0.000000 -0.364348 1.0000 1.0000 1.0000
v 3.640250 -0.000000 -0.360750 1.0000 1.0000 1.0000
v 3.647675 -0.000000 -0.356610 1.0000 1.0000 1.0000
v 3.655148 -0.000000 -0.351963 1.0000 1.0000 1.0000
v 3.662594 -0.000000 -0.346844 1.0000 1.0000 1.0000
v 3.669935 -0.000000 -0.341287 1.0000 1.0000 1.0000
v 3.677096 -0.000000 -0.335328 1.0000 1.0000 1.0000
v 3.684000 -0.000000 -0.329000 1.0000 1.0000 1.0000
v 3.731000 -0.000000 -0.406000 1.0000 1.0000 1.0000
v 3.721810 -0.000000 -0.414376 1.0000 1.0000 1.0000
v 3.712727 -0.000000 -0.422005 1.0000 1.0000 1.0000
v 3.703735 -0.000000 -0.428891 1.0000 1.0000 1.0000
v 3.694815 -0.000000 -0.435037 1.0000 1.0000 1.0000
v 3.685951 -0.000000 -0.440447 1.0000 1.0000 1.0000
v 3.677125 -0.000000 -0.445125 1.0000 1.0000 1.0000
v 3.668320 -0.000000 -0.449074 1.0000 1.0000 1.0000
v 3.659519 -0.000000 -0.452296 1.0000 1.0000 1.0000
v 3.650703 -0.000000 -0.454797 1.0000 1.0000 1.0000
v 3.641857 -0.000000 -0.456579 1.0000 1.0000 1.0000
v 3.632962 -0.000000 -0.457645 1.0000 1.0000 1.0000
v 3.624000 -0.000000 -0.458000 1.0000 1.0000 1.0000
v 3.613479 -0.000000 -0.457305 1.0000 1.0000 1.0000
v 3.602912 -0.000000 -0.455190 1.0000 1.0000 1.0000
v 3.592297 -0.000000 -0.451609 1.0000 1.0000 1.0000
v 3.581630 -0.000000 -0.446519 1.0000 1.0000 1.0000
v 3.570907 -0.000000 -0.439872 1.0000 1.0000 1.0000
v 3.560125 -0.000000 -0.431625 1.0000 1.0000 1.0000
v 3.549281 -0.000000 -0.421732 1.0000 1.0000 1.0000
v 3.538371 -0.000000 -0.410148 1.0000 1.0000 1.0000
v 3.527391 -0.000000 -0.396828 1.0000 1.0000 1.0000
v 3.516338 -0.000000 -0.381727 1.0000 1.0000 1.0000
v 3.505209 -0.000000 -0.364799 1.0000 1.0000 1.0000
v 3.494000 -0.000000 -0.346000 1.0000 1.0000 1.0000
v 3.492000 -0.000000 -0.346000 1.0000 1.0000 1.0000
v 3.492000 -0.000000 -0.449000 1.0000 1.0000 1.0000
v 3.293000 -0.000000 -0.130000 1.0000 1.0000 1.0000
v 3.280019 -0.000000 -0.121795 1.0000 1.0000 1.0000
v 3.267065 -0.000000 -0.114194 1.0000 1.0000 1.0000
v 3.254125 -0.000000 -0.107219 1.0000 1.0000 1.0000
v 3.241185 -0.000000 -0.100889 1.0000 1.0000 1.0000
v 3.228231 -0.000000 -0.095226 1.0000 1.0000 1.0000
v 3.215250 -0.000000 -0.090250 1.0000 1.0000 1.0000
v 3.202227 -0.000000 -0.085983 1.0000 1.0000 1.0000
v 3.189148 -0.000000 -0.082444 1.0000 1.0000 1.0000
v 3.176000 -0.000000 -0.079656 1.0000 1.0000 1.0000
v 3.162769 -0.000000 -0.077639 1.0000 1.0000 1.0000
v 3.149440 -0.000000 -0.076413 1.0000 1.0000 1.0000
v 3.136000 -0.000000 -0.076000 1.0000 1.0000 1.0000
v 3.115230 -0.000000 -0.076957 1.0000 1.0000 1.0000
v 3.095926 -0.000000 -0.079819 1.0000 1.0000 1.0000
v 3.078094 -0.000000 -0.084578 1.0000 1.0000 1.0000
v 3.061740 -0.000000 -0.091222 1.0000 1.0000 1.0000
v 3.046874 -0.000000 -0.099741 1.0000 1.0000 1.0000
v 3.033500 -0.000000 -0.110125 1.0000 1.0000 1.0000
v 3.021626 -0.000000 -0.122363 1.0000 1.0000 1.0000
v 3.011259 -0.000000 -0.136444 1.0000 1.0000 1.0000
v 3.002406 -0.000000 -0.152359 1.0000 1.0000 1.0000
v 2.995074 -0.000000 -0.170097 1.0000 1.0000 1.0000
v 2.989270 -0.000000 -0.189648 1.0000 1.0000 1.0000
v 2.985000 -0.000000 -0.211000 1.0000 1.0000 1.0000
v 3.301000 -0.000000 -0.211000 1.0000 1.0000 1.0000
v 3.299436 -0.000000 -0.250731 1.0000 1.0000 1.0000
v 3.294820 -0.000000 -0.286935 1.0000 1.0000 1.0000
v 3.287266 -0.000000 -0.319625 1.0000 1.0000 1.0000
v 3.276889 -0.000000 -0.348815 1.0000 1.0000 1.0000
v 3.263804 -0.000000 -0.374519 1.0000 1.0000 1.0000
v 3.248125 -0.000000 -0.396750 1.0000 1.0000 1.0000
v 3.229967 -0.000000 -0.415523 1.0000 1.0000 1.0000
v 3.209445 -0.000000 -0.430852 1.0000 1.0000 1.0000
v 3.186672 -0.000000 -0.442750 1.0000 1.0000 1.0000
v 3.161764 -0.000000 -0.451232 1.0000 1.0000 1.0000
v 3.134835 -0.000000 -0.456310 1.0000 1.0000 1.0000
v 3.106000 -0.000000 -0.458000 1.0000 1.0000 1.0000
v 3.075819 -0.000000 -0.456111 1.0000 1.0000 1.0000
v 3.047389 -0.000000 -0.450556 1.0000 1.0000 1.0000
v 3.020875 -0.000000 -0.441500 1.0000 1.0000 1.0000
v 2.996445 -0.000000 -0.429111 1.0000 1.0000 1.0000
v 2.974264 -0.000000 -0.413556 1.0000 1.0000 1.0000
v 2.954500 -0.000000 -0.395000 1.0000 1.0000 1.0000
v 2.937320 -0.000000 -0.373611 1.0000 1.0000 1.0000
v 2.922889 -0.000000 -0.349556 1.0000 1.0000 1.0000
v 2.911375 -0.000000 -0.323000 1.0000 1.0000 1.0000
v 2.902945 -0.000000 -0.294111 1.0000 1.0000 1.0000
v 2.897764 -0.000000 -0.263056 1.0000 1.0000 1.0000
v 2.896000 -0.000000 -0.230000 1.0000 1.0000 1.0000
v 2.897616 -0.000000 -0.199249 1.0000 1.0000 1.0000
v 2.902426 -0.000000 -0.169241 1.0000 1.0000 1.0000
v 2.910375 -0.000000 -0.140344 1.0000 1.0000 1.0000
v 2.921407 -0.000000 -0.112926 1.0000 1.0000 1.0000
v 2.935467 -0.000000 -0.087355 1.0000 1.0000 1.0000
v 2.952500 -0.000000 -0.064000 1.0000 1.0000 1.0000
v 2.972449 -0.000000 -0.043228 1.0000 1.0000 1.0000
v 2.995259 -0.000000 -0.025407 1.0000 1.0000 1.0000
v 3.020875 -0.000000 -0.010906 1.0000 1.0000 1.0000
v 3.049241 -0.000000 -0.000093 1.0000 1.0000 1.0000
v 3.080301 0.000000 0.006665 1.0000 1.0000 1.0000
v 3.114000 0.000000 0.009000 1.0000 1.0000 1.0000
v 3.132456 0.000000 0.008645 1.0000 1.0000 1.0000
v 3.149898 0.000000 0.007574 1.0000 1.0000 1.0000
v 3.166438 0.000000 0.005781 1.0000 1.0000 1.0000
v 3.182185 0.000000 0.003259 1.0000 1.0000 1.0000
v 3.197253 0.000000 0.000001 1.0000 1.0000 1.0000
v 3.211750 -0.000000 -0.004000 1.0000 1.0000 1.0000
v 3.225790 -0.000000 -0.008751 1.0000 1.0000 1.0000
v 3.239482 -0.000000 -0.014259 1.0000 1.0000 1.0000
v 3.252938 -0.000000 -0.020531 1.0000 1.0000 1.0000
v 3.266269 -0.000000 -0.027574 1.0000 1.0000 1.0000
v 3.279586 -0.000000 -0.035395 1.0000 1.0000 1.0000
v 3.293000 -0.000000 -0.044000 1.0000 1.0000 1.0000
v 2.987000 -0.000000 -0.270000 1.0000 1.0000 1.0000
v 2.990603 -0.000000 -0.287099 1.0000 1.0000 1.0000
v 2.995407 -0.000000 -0.302875 1.0000 1.0000 1.0000
v 3.001406 -0.000000 -0.317297 1.0000 1.0000 1.0000
v 3.008593 -0.000000 -0.330333 1.0000 1.0000 1.0000
v 3.016959 -0.000000 -0.341953 1.0000 1.0000 1.0000
v 3.026500 -0.000000 -0.352125 1.0000 1.0000 1.0000
v 3.037207 -0.000000 -0.360818 1.0000 1.0000 1.0000
v 3.049074 -0.000000 -0.368000 1.0000 1.0000 1.0000
v 3.062093 -0.000000 -0.373641 1.0000 1.0000 1.0000
v 3.076259 -0.000000 -0.377708 1.0000 1.0000 1.0000
v 3.091563 -0.000000 -0.380172 1.0000 1.0000 1.0000
v 3.108000 -0.000000 -0.381000 1.0000 1.0000 1.0000
v 3.123243 -0.000000 -0.380115 1.0000 1.0000 1.0000
v 3.137444 -0.000000 -0.377500 1.0000 1.0000 1.0000
v 3.150563 -0.000000 -0.373219 1.0000 1.0000 1.0000
v 3.162556 -0.000000 -0.367333 1.0000 1.0000 1.0000
v 3.173382 -0.000000 -0.359906 1.0000 1.0000 1.0000
v 3.183000 -0.000000 -0.351000 1.0000 1.0000 1.0000
v 3.191368 -0.000000 -0.340677 1.0000 1.0000 1.0000
v 3.198445 -0.000000 -0.329000 1.0000 1.0000 1.0000
v 3.204188 -0.000000 -0.316031 1.0000 1.0000 1.0000
v 3.208556 -0.000000 -0.301833 1.0000 1.0000 1.0000
v 3.211507 -0.000000 -0.286469 1.0000 1.0000 1.0000
v 3.213000 -0.000000 -0.270000 1.0000 1.0000 1.0000
v 2.810000 -0.000000 -0.427000 1.0000 1.0000 1.0000
v 2.799402 -0.000000 -0.431601 1.0000 1.0000 1.0000
v 2.789051 -0.000000 -0.435894 1.0000 1.0000 1.0000
v 2.778860 -0.000000 -0.439859 1.0000 1.0000 1.0000
v 2.768741 -0.000000 -0.443482 1.0000 1.0000 1.0000
v 2.758608 -0.000000 -0.446743 1.0000 1.0000 1.0000
v 2.748375 -0.000000 -0.449625 1.0000 1.0000 1.0000
v 2.737954 -0.000000 -0.452112 1.0000 1.0000 1.0000
v 2.727259 -0.000000 -0.454185 1.0000 1.0000 1.0000
v 2.716203 -0.000000 -0.455828 1.0000 1.0000 1.0000
v 2.704699 -0.000000 -0.457023 1.0000 1.0000 1.0000
v 2.692660 -0.000000 -0.457753 1.0000 1.0000 1.0000
v 2.680000 -0.000000 -0.458000 1.0000 1.0000 1.0000
v 2.647063 -0.000000 -0.456065 1.0000 1.0000 1.0000
v 2.616333 -0.000000 -0.450352 1.0000 1.0000 1.0000
v 2.587938 -0.000000 -0.441000 1.0000 1.0000 1.0000
v 2.562000 -0.000000 -0.428148 1.0000 1.0000 1.0000
v 2.538646 -0.000000 -0.411935 1.0000 1.0000 1.0000
v 2.518000 -0.000000 -0.392500 1.0000 1.0000 1.0000
v 2.500187 -0.000000 -0.369981 1.0000 1.0000 1.0000
v 2.485333 -0.000000 -0.344519 1.0000 1.0000 1.0000
v 2.473562 -0.000000 -0.316250 1.0000 1.0000 1.0000
v 2.465000 -0.000000 -0.285315 1.0000 1.0000 1.0000
v 2.459770 -0.000000 -0.251852 1.0000 1.0000 1.0000
v 2.458000 -0.000000 -0.216000 1.0000 1.0000 1.0000
v 2.459927 -0.000000 -0.183844 1.0000 1.0000 1.0000
v 2.465583 -0.000000 -0.153500 1.0000 1.0000 1.0000
v 2.474781 -0.000000 -0.125156 1.0000 1.0000 1.0000
v 2.487333 -0.000000 -0.099000 1.0000 1.0000 1.0000
v 2.503052 -0.000000 -0.075219 1.0000 1.0000 1.0000
v 2.521750 -0.000000 -0.054000 1.0000 1.0000 1.0000
v 2.543240 -0.000000 -0.035531 1.0000 1.0000 1.0000
v 2.567333 -0.000000 -0.020000 1.0000 1.0000 1.0000
v 2.593844 -0.000000 -0.007594 1.0000 1.0000 1.0000
v 2.622584 0.000000 0.001500 1.0000 1.0000 1.0000
v 2.653365 0.000000 0.007094 1.0000 1.0000 1.0000
v 2.686000 0.000000 0.009000 1.0000 1.0000 1.0000
v 2.697937 0.000000 0.008756 1.0000 1.0000 1.0000
v 2.710162 0.000000 0.008046 1.0000 1.0000 1.0000
v 2.722547 0.000000 0.006906 1.0000 1.0000 1.0000
v 2.734963 0.000000 0.005370 1.0000 1.0000 1.0000
v 2.747282 0.000000 0.003473 1.0000 1.0000 1.0000
v 2.759375 0.000000 0.001250 1.0000 1.0000 1.0000
v 2.771114 -0.000000 -0.001265 1.0000 1.0000 1.0000
v 2.782371 -0.000000 -0.004037 1.0000 1.0000 1.0000
v 2.793016 -0.000000 -0.007031 1.0000 1.0000 1.0000
v 2.802922 -0.000000 -0.010213 1.0000 1.0000 1.0000
v 2.811960 -0.000000 -0.013547 1.0000 1.0000 1.0000
v 2.820000 -0.000000 -0.017000 1.0000 1.0000 1.0000
v 2.820000 -0.000000 -0.105000 1.0000 1.0000 1.0000
v 2.808931 -0.000000 -0.100208 1.0000 1.0000 1.0000
v 2.798199 -0.000000 -0.095833 1.0000 1.0000 1.0000
v 2.787766 -0.000000 -0.091875 1.0000 1.0000 1.0000
v 2.777593 -0.000000 -0.088333 1.0000 1.0000 1.0000
v 2.767642 -0.000000 -0.085208 1.0000 1.0000 1.0000
v 2.757875 -0.000000 -0.082500 1.0000 1.0000 1.0000
v 2.748254 -0.000000 -0.080208 1.0000 1.0000 1.0000
v 2.738741 -0.000000 -0.078333 1.0000 1.0000 1.0000
v 2.729297 -0.000000 -0.076875 1.0000 1.0000 1.0000
v 2.719884 -0.000000 -0.075833 1.0000 1.0000 1.0000
v 2.710464 -0.000000 -0.075208 1.0000 1.0000 1.0000
v 2.701000 -0.000000 -0.075000 1.0000 1.0000 1.0000
v 2.678683 -0.000000 -0.076156 1.0000 1.0000 1.0000
v 2.657796 -0.000000 -0.079579 1.0000 1.0000 1.0000
v 2.638437 -0.000000 -0.085203 1.0000 1.0000 1.0000
v 2.620703 -0.000000 -0.092963 1.0000 1.0000 1.0000
v 2.604692 -0.000000 -0.102792 1.0000 1.0000 1.0000
v 2.590500 -0.000000 -0.114625 1.0000 1.0000 1.0000
v 2.578224 -0.000000 -0.128395 1.0000 1.0000 1.0000
v 2.567963 -0.000000 -0.144037 1.0000 1.0000 1.0000
v 2.559813 -0.000000 -0.161484 1.0000 1.0000 1.0000
v 2.553870 -0.000000 -0.180671 1.0000 1.0000 1.0000
v 2.550234 -0.000000 -0.201532 1.0000 1.0000 1.0000
v 2.549000 -0.000000 -0.224000 1.0000 1.0000 1.0000
v 2.550149 -0.000000 -0.246107 1.0000 1.0000 1.0000
v 2.553523 -0.000000 -0.266856 1.0000 1.0000 1.0000
v 2.559016 -0.000000 -0.286141 1.0000 1.0000 1.0000
v 2.566518 -0.000000 -0.303852 1.0000 1.0000 1.0000
v 2.575924 -0.000000 -0.319883 1.0000 1.0000 1.0000
v 2.587125 -0.000000 -0.334125 1.0000 1.0000 1.0000
v 2.600013 -0.000000 -0.346472 1.0000 1.0000 1.0000
v 2.614481 -0.000000 -0.356815 1.0000 1.0000 1.0000
v 2.630422 -0.000000 -0.365047 1.0000 1.0000 1.0000
v 2.647727 -0.000000 -0.371060 1.0000 1.0000 1.0000
v 2.666289 -0.000000 -0.374747 1.0000 1.0000 1.0000
v 2.686000 -0.000000 -0.376000 1.0000 1.0000 1.0000
v 2.695659 -0.000000 -0.375784 1.0000 1.0000 1.0000
v 2.705185 -0.000000 -0.375102 1.0000 1.0000 1.0000
v 2.714657 -0.000000 -0.373906 1.0000 1.0000 1.0000
v 2.724149 -0.000000 -0.372148 1.0000 1.0000 1.0000
v 2.733738 -0.000000 -0.369779 1.0000 1.0000 1.0000
v 2.743500 -0.000000 -0.366750 1.0000 1.0000 1.0000
v 2.753513 -0.000000 -0.363013 1.0000 1.0000 1.0000
v 2.763852 -0.000000 -0.358519 1.0000 1.0000 1.0000
v 2.774594 -0.000000 -0.353219 1.0000 1.0000 1.0000
v 2.785815 -0.000000 -0.347065 1.0000 1.0000 1.0000
v 2.797592 -0.000000 -0.340008 1.0000 1.0000 1.0000
v 2.810000 -0.000000 -0.332000 1.0000 1.0000 1.0000
v 2.401000 -0.000000 -0.080000 1.0000 1.0000 1.0000
v 2.396046 -0.000000 -0.076377 1.0000 1.0000 1.0000
v 2.391199 -0.000000 -0.073014 1.0000 1.0000 1.0000
v 2.386484 -0.000000 -0.069922 1.0000 1.0000 1.0000
v 2.381926 -0.000000 -0.067111 1.0000 1.0000 1.0000
v 2.377548 -0.000000 -0.064592 1.0000 1.0000 1.0000
v 2.373375 -0.000000 -0.062375 1.0000 1.0000 1.0000
v 2.369431 -0.000000 -0.060470 1.0000 1.0000 1.0000
v 2.365741 -0.000000 -0.058889 1.0000 1.0000 1.0000
v 2.362328 -0.000000 -0.057641 1.0000 1.0000 1.0000
v 2.359217 -0.000000 -0.056736 1.0000 1.0000 1.0000
v 2.356433 -0.000000 -0.056186 1.0000 1.0000 1.0000
v 2.354000 -0.000000 -0.056000 1.0000 1.0000 1.0000
v 2.351355 -0.000000 -0.056128 1.0000 1.0000 1.0000
v 2.348921 -0.000000 -0.056523 1.0000 1.0000 1.0000
v 2.346703 -0.000000 -0.057203 1.0000 1.0000 1.0000
v 2.344704 -0.000000 -0.058185 1.0000 1.0000 1.0000
v 2.342927 -0.000000 -0.059487 1.0000 1.0000 1.0000
v 2.341375 -0.000000 -0.061125 1.0000 1.0000 1.0000
v 2.340053 -0.000000 -0.063117 1.0000 1.0000 1.0000
v 2.338963 -0.000000 -0.065481 1.0000 1.0000 1.0000
v 2.338109 -0.000000 -0.068234 1.0000 1.0000 1.0000
v 2.337496 -0.000000 -0.071394 1.0000 1.0000 1.0000
v 2.337125 -0.000000 -0.074976 1.0000 1.0000 1.0000
v 2.337000 -0.000000 -0.079000 1.0000 1.0000 1.0000
v 2.337000 -0.000000 -0.310000 1.0000 1.0000 1.0000
v 2.335531 -0.000000 -0.334339 1.0000 1.0000 1.0000
v 2.331245 -0.000000 -0.356380 1.0000 1.0000 1.0000
v 2.324328 -0.000000 -0.376156 1.0000 1.0000 1.0000
v 2.314963 -0.000000 -0.393704 1.0000 1.0000 1.0000
v 2.303334 -0.000000 -0.409057 1.0000 1.0000 1.0000
v 2.289625 -0.000000 -0.422250 1.0000 1.0000 1.0000
v 2.274020 -0.000000 -0.433318 1.0000 1.0000 1.0000
v 2.256704 -0.000000 -0.442296 1.0000 1.0000 1.0000
v 2.237859 -0.000000 -0.449219 1.0000 1.0000 1.0000
v 2.217671 -0.000000 -0.454120 1.0000 1.0000 1.0000
v 2.196324 -0.000000 -0.457036 1.0000 1.0000 1.0000
v 2.174000 -0.000000 -0.458000 1.0000 1.0000 1.0000
v 2.158082 -0.000000 -0.457583 1.0000 1.0000 1.0000
v 2.142824 -0.000000 -0.456329 1.0000 1.0000 1.0000
v 2.128219 -0.000000 -0.454234 1.0000 1.0000 1.0000
v 2.114260 -0.000000 -0.451296 1.0000 1.0000 1.0000
v 2.100939 -0.000000 -0.447511 1.0000 1.0000 1.0000
v 2.088250 -0.000000 -0.442875 1.0000 1.0000 1.0000
v 2.076187 -0.000000 -0.437385 1.0000 1.0000 1.0000
v 2.064741 -0.000000 -0.431037 1.0000 1.0000 1.0000
v 2.053907 -0.000000 -0.423828 1.0000 1.0000 1.0000
v 2.043676 -0.000000 -0.415755 1.0000 1.0000 1.0000
v 2.034043 -0.000000 -0.406813 1.0000 1.0000 1.0000
v 2.025000 -0.000000 -0.397000 1.0000 1.0000 1.0000
v 2.025000 -0.000000 -0.300000 1.0000 1.0000 1.0000
v 2.035891 -0.000000 -0.312170 1.0000 1.0000 1.0000
v 2.047046 -0.000000 -0.323190 1.0000 1.0000 1.0000
v 2.058438 -0.000000 -0.333078 1.0000 1.0000 1.0000
v 2.070037 -0.000000 -0.341852 1.0000 1.0000 1.0000
v 2.081817 -0.000000 -0.349528 1.0000 1.0000 1.0000
v 2.093750 -0.000000 -0.356125 1.0000 1.0000 1.0000
v 2.105808 -0.000000 -0.361659 1.0000 1.0000 1.0000
v 2.117963 -0.000000 -0.366148 1.0000 1.0000 1.0000
v 2.130187 -0.000000 -0.369609 1.0000 1.0000 1.0000
v 2.142453 -0.000000 -0.372060 1.0000 1.0000 1.0000
v 2.154733 -0.000000 -0.373518 1.0000 1.0000 1.0000
v 2.167000 -0.000000 -0.374000 1.0000 1.0000 1.0000
v 2.179938 -0.000000 -0.373515 1.0000 1.0000 1.0000
v 2.191750 -0.000000 -0.372037 1.0000 1.0000 1.0000
v 2.202438 -0.000000 -0.369531 1.0000 1.0000 1.0000
v 2.212000 -0.000000 -0.365963 1.0000 1.0000 1.0000
v 2.220438 -0.000000 -0.361297 1.0000 1.0000 1.0000
v 2.227750 -0.000000 -0.355500 1.0000 1.0000 1.0000
v 2.233938 -0.000000 -0.348536 1.0000 1.0000 1.0000
v 2.239000 -0.000000 -0.340370 1.0000 1.0000 1.0000
v 2.242938 -0.000000 -0.330969 1.0000 1.0000 1.0000
v 2.245750 -0.000000 -0.320296 1.0000 1.0000 1.0000
v 2.247437 -0.000000 -0.308318 1.0000 1.0000 1.0000
v 2.248000 -0.000000 -0.295000 1.0000 1.0000 1.0000
v 2.248000 -0.000000 -0.271000 1.0000 1.0000 1.0000
v 2.169000 -0.000000 -0.243000 1.0000 1.0000 1.0000
v 2.150865 -0.000000 -0.236444 1.0000 1.0000 1.0000
v 2.132667 -0.000000 -0.229634 1.0000 1.0000 1.0000
v 2.114719 -0.000000 -0.222359 1.0000 1.0000 1.0000
v 2.097333 -0.000000 -0.214407 1.0000 1.0000 1.0000
v 2.080823 -0.000000 -0.205567 1.0000 1.0000 1.0000
v 2.065500 -0.000000 -0.195625 1.0000 1.0000 1.0000
v 2.051677 -0.000000 -0.184371 1.0000 1.0000 1.0000
v 2.039667 -0.000000 -0.171593 1.0000 1.0000 1.0000
v 2.029781 -0.000000 -0.157078 1.0000 1.0000 1.0000
v 2.022333 -0.000000 -0.140616 1.0000 1.0000 1.0000
v 2.017635 -0.000000 -0.121994 1.0000 1.0000 1.0000
v 2.016000 -0.000000 -0.101000 1.0000 1.0000 1.0000
v 2.016904 -0.000000 -0.086652 1.0000 1.0000 1.0000
v 2.019565 -0.000000 -0.072713 1.0000 1.0000 1.0000
v 2.023906 -0.000000 -0.059344 1.0000 1.0000 1.0000
v 2.029852 -0.000000 -0.046704 1.0000 1.0000 1.0000
v 2.037325 -0.000000 -0.034953 1.0000 1.0000 1.0000
v 2.046250 -0.000000 -0.024250 1.0000 1.0000 1.0000
v 2.056550 -0.000000 -0.014756 1.0000 1.0000 1.0000
v 2.068148 -0.000000 -0.006630 1.0000 1.0000 1.0000
v 2.080969 -0.000000 -0.000031 1.0000 1.0000 1.0000
v 2.094935 0.000000 0.004880 1.0000 1.0000 1.0000
v 2.109971 0.000000 0.007943 1.0000 1.0000 1.0000
v 2.126000 0.000000 0.009000 1.0000 1.0000 1.0000
v 2.136249 0.000000 0.008687 1.0000 1.0000 1.0000
v 2.146491 0.000000 0.007745 1.0000 1.0000 1.0000
v 2.156719 0.000000 0.006172 1.0000 1.0000 1.0000
v 2.166926 0.000000 0.003963 1.0000 1.0000 1.0000
v 2.177106 0.000000 0.001115 1.0000 1.0000 1.0000
v 2.187250 -0.000000 -0.002375 1.0000 1.0000 1.0000
v 2.197353 -0.000000 -0.006511 1.0000 1.0000 1.0000
v 2.207408 -0.000000 -0.011296 1.0000 1.0000 1.0000
v 2.217407 -0.000000 -0.016734 1.0000 1.0000 1.0000
v 2.227343 -0.000000 -0.022829 1.0000 1.0000 1.0000
v 2.237210 -0.000000 -0.029583 1.0000 1.0000 1.0000
v 2.247000 -0.000000 -0.037000 1.0000 1.0000 1.0000
v 2.249274 -0.000000 -0.029373 1.0000 1.0000 1.0000
v 2.252107 -0.000000 -0.022481 1.0000 1.0000 1.0000
v 2.255516 -0.000000 -0.016312 1.0000 1.0000 1.0000
v 2.259519 -0.000000 -0.010852 1.0000 1.0000 1.0000
v 2.264132 -0.000000 -0.006086 1.0000 1.0000 1.0000
v 2.269375 -0.000000 -0.002000 1.0000 1.0000 1.0000
v 2.275263 0.000000 0.001419 1.0000 1.0000 1.0000
v 2.281815 0.000000 0.004185 1.0000 1.0000 1.0000
v 2.289047 0.000000 0.006313 1.0000 1.0000 1.0000
v 2.296977 0.000000 0.007815 1.0000 1.0000 1.0000
v 2.305622 0.000000 0.008706 1.0000 1.0000 1.0000
v 2.315000 0.000000 0.009000 1.0000 1.0000 1.0000
v 2.321791 0.000000 0.008827 1.0000 1.0000 1.0000
v 2.328245 0.000000 0.008282 1.0000 1.0000 1.0000
v 2.334484 0.000000 0.007328 1.0000 1.0000 1.0000
v 2.340630 0.000000 0.005926 1.0000 1.0000 1.0000
v 2.346803 0.000000 0.004038 1.0000 1.0000 1.0000
v 2.353125 0.000000 0.001625 1.0000 1.0000 1.0000
v 2.359718 -0.000000 -0.001350 1.0000 1.0000 1.0000
v 2.366704 -0.000000 -0.004926 1.0000 1.0000 1.0000
v 2.374203 -0.000000 -0.009141 1.0000 1.0000 1.0000
v 2.382338 -0.000000 -0.014032 1.0000 1.0000 1.0000
v 2.391230 -0.000000 -0.019639 1.0000 1.0000 1.0000
v 2.401000 -0.000000 -0.026000 1.0000 1.0000 1.0000
v 2.248000 -0.000000 -0.091000 1.0000 1.0000 1.0000
v 2.241958 -0.000000 -0.085440 1.0000 1.0000 1.0000
v 2.235833 -0.000000 -0.080273 1.0000 1.0000 1.0000
v 2.229625 -0.000000 -0.075516 1.0000 1.0000 1.0000
v 2.223333 -0.000000 -0.071185 1.0000 1.0000 1.0000
v 2.216958 -0.000000 -0.067299 1.0000 1.0000 1.0000
v 2.210500 -0.000000 -0.063875 1.0000 1.0000 1.0000
v 2.203958 -0.000000 -0.060930 1.0000 1.0000 1.0000
v 2.197333 -0.000000 -0.058481 1.0000 1.0000 1.0000
v 2.190625 -0.000000 -0.056547 1.0000 1.0000 1.0000
v 2.183833 -0.000000 -0.055144 1.0000 1.0000 1.0000
v 2.176958 -0.000000 -0.054289 1.0000 1.0000 1.0000
v 2.170000 -0.000000 -0.054000 1.0000 1.0000 1.0000
v 2.160968 -0.000000 -0.054533 1.0000 1.0000 1.0000
v 2.152412 -0.000000 -0.056097 1.0000 1.0000 1.0000
v 2.144391 -0.000000 -0.058641 1.0000 1.0000 1.0000
v 2.136963 -0.000000 -0.062111 1.0000 1.0000 1.0000
v 2.130188 -0.000000 -0.066457 1.0000 1.0000 1.0000
v 2.124125 -0.000000 -0.071625 1.0000 1.0000 1.0000
v 2.118833 -0.000000 -0.077564 1.0000 1.0000 1.0000
v 2.114371 -0.000000 -0.084222 1.0000 1.0000 1.0000
v 2.110797 -0.000000 -0.091547 1.0000 1.0000 1.0000
v 2.108172 -0.000000 -0.099486 1.0000 1.0000 1.0000
v 2.106553 -0.000000 -0.107988 1.0000 1.0000 1.0000
v 2.106000 -0.000000 -0.117000 1.0000 1.0000 1.0000
v 2.107343 -0.000000 -0.129703 1.0000 1.0000 1.0000
v 2.111241 -0.000000 -0.141375 1.0000 1.0000 1.0000
v 2.117500 -0.000000 -0.152109 1.0000 1.0000 1.0000
v 2.125926 -0.000000 -0.162000 1.0000 1.0000 1.0000
v 2.136324 -0.000000 -0.171141 1.0000 1.0000 1.0000
v 2.148500 -0.000000 -0.179625 1.0000 1.0000 1.0000
v 2.162260 -0.000000 -0.187547 1.0000 1.0000 1.0000
v 2.177408 -0.000000 -0.195000 1.0000 1.0000 1.0000
v 2.193750 -0.000000 -0.202078 1.0000 1.0000 1.0000
v 2.211093 -0.000000 -0.208875 1.0000 1.0000 1.0000
v 2.229241 -0.000000 -0.215484 1.0000 1.0000 1.0000
v 2.248000 -0.000000 -0.222000 1.0000 1.0000 1.0000
v 1.663000 -0.000000 -0.449000 1.0000 1.0000 1.0000
v 1.663000 0.000000 0.000000 1.0000 1.0000 1.0000
v 1.752000 0.000000 0.000000 1.0000 1.0000 1.0000
v 1.752000 -0.000000 -0.235000 1.0000 1.0000 1.0000
v 1.752980 -0.000000 -0.253891 1.0000 1.0000 1.0000
v 1.755838 -0.000000 -0.271958 1.0000 1.0000 1.0000
v 1.760453 -0.000000 -0.289047 1.0000 1.0000 1.0000
v 1.766704 -0.000000 -0.305000 1.0000 1.0000 1.0000
v 1.774468 -0.000000 -0.319661 1.0000 1.0000 1.0000
v 1.783625 -0.000000 -0.332875 1.0000 1.0000 1.0000
v 1.794053 -0.000000 -0.344484 1.0000 1.0000 1.0000
v 1.805630 -0.000000 -0.354333 1.0000 1.0000 1.0000
v 1.818235 -0.000000 -0.362266 1.0000 1.0000 1.0000
v 1.831746 -0.000000 -0.368125 1.0000 1.0000 1.0000
v 1.846041 -0.000000 -0.371755 1.0000 1.0000 1.0000
v 1.861000 -0.000000 -0.373000 1.0000 1.0000 1.0000
v 1.866529 -0.000000 -0.372631 1.0000 1.0000 1.0000
v 1.872565 -0.000000 -0.371546 1.0000 1.0000 1.0000
v 1.879031 -0.000000 -0.369781 1.0000 1.0000 1.0000
v 1.885852 -0.000000 -0.367370 1.0000 1.0000 1.0000
v 1.892950 -0.000000 -0.364348 1.0000 1.0000 1.0000
v 1.900250 -0.000000 -0.360750 1.0000 1.0000 1.0000
v 1.907675 -0.000000 -0.356610 1.0000 1.0000 1.0000
v 1.915148 -0.000000 -0.351963 1.0000 1.0000 1.0000
v 1.922594 -0.000000 -0.346844 1.0000 1.0000 1.0000
v 1.929935 -0.000000 -0.341287 1.0000 1.0000 1.0000
v 1.937096 -0.000000 -0.335328 1.0000 1.0000 1.0000
v 1.944000 -0.000000 -0.329000 1.0000 1.0000 1.0000
v 1.991000 -0.000000 -0.406000 1.0000 1.0000 1.0000
v 1.981810 -0.000000 -0.414376 1.0000 1.0000 1.0000
v 1.972727 -0.000000 -0.422005 1.0000 1.0000 1.0000
v 1.963735 -0.000000 -0.428891 1.0000 1.0000 1.0000
v 1.954815 -0.000000 -0.435037 1.0000 1.0000 1.0000
v 1.945951 -0.000000 -0.440447 1.0000 1.0000 1.0000
v 1.937125 -0.000000 -0.445125 1.0000 1.0000 1.0000
v 1.928320 -0.000000 -0.449074 1.0000 1.0000 1.0000
v 1.919519 -0.000000 -0.452296 1.0000 1.0000 1.0000
v 1.910703 -0.000000 -0.454797 1.0000 1.0000 1.0000
v 1.901857 -0.000000 -0.456579 1.0000 1.0000 1.0000
v 1.892961 -0.000000 -0.457645 1.0000 1.0000 1.0000
v 1.884000 -0.000000 -0.458000 1.0000 1.0000 1.0000
v 1.873479 -0.000000 -0.457305 1.0000 1.0000 1.0000
v 1.862912 -0.000000 -0.455190 1.0000 1.0000 1.0000
v 1.852297 -0.000000 -0.451609 1.0000 1.0000 1.0000
v 1.841630 -0.000000 -0.446519 1.0000 1.0000 1.0000
v 1.830907 -0.000000 -0.439872 1.0000 1.0000 1.0000
v 1.820125 -0.000000 -0.431625 1.0000 1.0000 1.0000
v 1.809281 -0.000000 -0.421732 1.0000 1.0000 1.0000
v 1.798370 -0.000000 -0.410148 1.0000 1.0000 1.0000
v 1.787391 -0.000000 -0.396828 1.0000 1.0000 1.0000
v 1.776338 -0.000000 -0.381727 1.0000 1.0000 1.0000
v 1.765209 -0.000000 -0.364799 1.0000 1.0000 1.0000
v 1.754000 -0.000000 -0.346000 1.0000 1.0000 1.0000
v 1.752000 -0.000000 -0.346000 1.0000 1.0000 1.0000
v 1.752000 -0.000000 -0.449000 1.0000 1.0000 1.0000
v 1.428000 -0.000000 -0.542000 1.0000 1.0000 1.0000
v 1.261000 -0.000000 -0.379000 1.0000 1.0000 1.0000
v 1.261000 -0.000000 -0.369000 1.0000 1.0000 1.0000
v 1.339000 -0.000000 -0.369000 1.0000 1.0000 1.0000
v 1.339000 -0.000000 -0.132000 1.0000 1.0000 1.0000
v 1.340020 -0.000000 -0.112210 1.0000 1.0000 1.0000
v 1.343079 -0.000000 -0.093431 1.0000 1.0000 1.0000
v 1.348172 -0.000000 -0.075797 1.0000 1.0000 1.0000
v 1.355296 -0.000000 -0.059444 1.0000 1.0000 1.0000
v 1.364449 -0.000000 -0.044509 1.0000 1.0000 1.0000
v 1.375625 -0.000000 -0.031125 1.0000 1.0000 1.0000
v 1.388822 -0.000000 -0.019429 1.0000 1.0000 1.0000
v 1.404037 -0.000000 -0.009556 1.0000 1.0000 1.0000
v 1.421266 -0.000000 -0.001641 1.0000 1.0000 1.0000
v 1.440505 0.000000 0.004181 1.0000 1.0000 1.0000
v 1.461751 0.000000 0.007773 1.0000 1.0000 1.0000
v 1.485000 0.000000 0.009000 1.0000 1.0000 1.0000
v 1.492625 0.000000 0.008734 1.0000 1.0000 1.0000
v 1.500917 0.000000 0.007958 1.0000 1.0000 1.0000
v 1.509750 0.000000 0.006703 1.0000 1.0000 1.0000
v 1.519000 0.000000 0.005000 1.0000 1.0000 1.0000
v 1.528542 0.000000 0.002880 1.0000 1.0000 1.0000
v 1.538250 0.000000 0.000375 1.0000 1.0000 1.0000
v 1.548000 -0.000000 -0.002484 1.0000 1.0000 1.0000
v 1.557667 -0.000000 -0.005667 1.0000 1.0000 1.0000
v 1.567125 -0.000000 -0.009141 1.0000 1.0000 1.0000
v 1.576250 -0.000000 -0.012875 1.0000 1.0000 1.0000
v 1.584917 -0.000000 -0.016839 1.0000 1.0000 1.0000
v 1.593000 -0.000000 -0.021000 1.0000 1.0000 1.0000
v 1.593000 -0.000000 -0.104000 1.0000 1.0000 1.0000
v 1.584062 -0.000000 -0.098729 1.0000 1.0000 1.0000
v 1.575241 -0.000000 -0.093917 1.0000 1.0000 1.0000
v 1.566531 -0.000000 -0.089563 1.0000 1.0000 1.0000
v 1.557926 -0.000000 -0.085667 1.0000 1.0000 1.0000
v 1.549418 -0.000000 -0.082229 1.0000 1.0000 1.0000
v 1.541000 -0.000000 -0.079250 1.0000 1.0000 1.0000
v 1.532665 -0.000000 -0.076729 1.0000 1.0000 1.0000
v 1.524407 -0.000000 -0.074667 1.0000 1.0000 1.0000
v 1.516219 -0.000000 -0.073063 1.0000 1.0000 1.0000
v 1.508093 -0.000000 -0.071917 1.0000 1.0000 1.0000
v 1.500022 -0.000000 -0.071229 1.0000 1.0000 1.0000
v 1.492000 -0.000000 -0.071000 1.0000 1.0000 1.0000
v 1.485279 -0.000000 -0.071326 1.0000 1.0000 1.0000
v 1.478232 -0.000000 -0.072356 1.0000 1.0000 1.0000
v 1.471031 -0.000000 -0.074172 1.0000 1.0000 1.0000
v 1.463852 -0.000000 -0.076852 1.0000 1.0000 1.0000
v 1.456867 -0.000000 -0.080476 1.0000 1.0000 1.0000
v 1.450250 -0.000000 -0.085125 1.0000 1.0000 1.0000
v 1.444175 -0.000000 -0.090878 1.0000 1.0000 1.0000
v 1.438815 -0.000000 -0.097815 1.0000 1.0000 1.0000
v 1.434344 -0.000000 -0.106016 1.0000 1.0000 1.0000
v 1.430935 -0.000000 -0.115560 1.0000 1.0000 1.0000
v 1.428763 -0.000000 -0.126528 1.0000 1.0000 1.0000
v 1.428000 -0.000000 -0.139000 1.0000 1.0000 1.0000
v 1.428000 -0.000000 -0.369000 1.0000 1.0000 1.0000
v 1.570000 -0.000000 -0.369000 1.0000 1.0000 1.0000
v 1.570000 -0.000000 -0.449000 1.0000 1.0000 1.0000
v 1.428000 -0.000000 -0.449000 1.0000 1.0000 1.0000
v 1.261000 -0.000000 -0.449000 1.0000 1.0000 1.0000
v 1.161000 -0.000000 -0.449000 1.0000 1.0000 1.0000
v 1.045000 -0.000000 -0.196000 1.0000 1.0000 1.0000
v 0.924000 -0.000000 -0.449000 1.0000 1.0000 1.0000
v 0.823000 -0.000000 -0.449000 1.0000 1.0000 1.0000
v 0.997000 -0.000000 -0.096000 1.0000 1.0000 1.0000
v 0.844000 0.000000 0.230000 1.0000 1.0000 1.0000
v 0.943000 0.000000 0.230000 1.0000 1.0000 1.0000
v 0.807000 -0.000000 -0.080000 1.0000 1.0000 1.0000
v 0.802046 -0.000000 -0.076377 1.0000 1.0000 1.0000
v 0.797199 -0.000000 -0.073014 1.0000 1.0000 1.0000
v 0.792484 -0.000000 -0.069922 1.0000 1.0000 1.0000
v 0.787926 -0.000000 -0.067111 1.0000 1.0000 1.0000
v 0.783548 -0.000000 -0.064592 1.0000 1.0000 1.0000
v 0.779375 -0.000000 -0.062375 1.0000 1.0000 1.0000
v 0.775431 -0.000000 -0.060470 1.0000 1.0000 1.0000
v 0.771741 -0.000000 -0.058889 1.0000 1.0000 1.0000
v 0.768328 -0.000000 -0.057641 1.0000 1.0000 1.0000
v 0.765218 -0.000000 -0.056736 1.0000 1.0000 1.0000
v 0.762434 -0.000000 -0.056186 1.0000 1.0000 1.0000
v 0.760000 -0.000000 -0.056000 1.0000 1.0000 1.0000
v 0.757355 -0.000000 -0.056128 1.0000 1.0000 1.0000
v 0.754921 -0.000000 -0.056523 1.0000 1.0000 1.0000
v 0.752703 -0.000000 -0.057203 1.0000 1.0000 1.0000
v 0.750704 -0.000000 -0.058185 1.0000 1.0000 1.0000
v 0.748927 -0.000000 -0.059487 1.0000 1.0000 1.0000
v 0.747375 -0.000000 -0.061125 1.0000 1.0000 1.0000
v 0.746053 -0.000000 -0.063117 1.0000 1.0000 1.0000
v 0.744963 -0.000000 -0.065481 1.0000 1.0000 1.0000
v 0.744109 -0.000000 -0.068234 1.0000 1.0000 1.0000
v 0.743495 -0.000000 -0.071394 1.0000 1.0000 1.0000
v 0.743124 -0.000000 -0.074976 1.0000 1.0000 1.0000
v 0.743000 -0.000000 -0.079000 1.0000 1.0000 1.0000
v 0.743000 -0.000000 -0.310000 1.0000 1.0000 1.0000
v 0.741531 -0.000000 -0.334339 1.0000 1.0000 1.0000
v 0.737245 -0.000000 -0.356380 1.0000 1.0000 1.0000
v 0.730328 -0.000000 -0.376156 1.0000 1.0000 1.0000
v 0.720963 -0.000000 -0.393704 1.0000 1.0000 1.0000
v 0.709334 -0.000000 -0.409057 1.0000 1.0000 1.0000
v 0.695625 -0.000000 -0.422250 1.0000 1.0000 1.0000
v 0.680020 -0.000000 -0.433318 1.0000 1.0000 1.0000
v 0.662704 -0.000000 -0.442296 1.0000 1.0000 1.0000
v 0.643860 -0.000000 -0.449219 1.0000 1.0000 1.0000
v 0.623671 -0.000000 -0.454120 1.0000 1.0000 1.0000
v 0.602324 -0.000000 -0.457036 1.0000 1.0000 1.0000
v 0.580000 -0.000000 -0.458000 1.0000 1.0000 1.0000
v 0.564082 -0.000000 -0.457583 1.0000 1.0000 1.0000
v 0.548824 -0.000000 -0.456329 1.0000 1.0000 1.0000
v 0.534219 -0.000000 -0.454234 1.0000 1.0000 1.0000
v 0.520259 -0.000000 -0.451296 1.0000 1.0000 1.0000
v 0.506939 -0.000000 -0.447511 1.0000 1.0000 1.0000
v 0.494250 -0.000000 -0.442875 1.0000 1.0000 1.0000
v 0.482186 -0.000000 -0.437385 1.0000 1.0000 1.0000
v 0.470741 -0.000000 -0.431037 1.0000 1.0000 1.0000
v 0.459906 -0.000000 -0.423828 1.0000 1.0000 1.0000
v 0.449676 -0.000000 -0.415755 1.0000 1.0000 1.0000
v 0.440043 -0.000000 -0.406813 1.0000 1.0000 1.0000
v 0.431000 -0.000000 -0.397000 1.0000 1.0000 1.0000
v 0.431000 -0.000000 -0.300000 1.0000 1.0000 1.0000
v 0.441891 -0.000000 -0.312170 1.0000 1.0000 1.0000
v 0.453046 -0.000000 -0.323190 1.0000 1.0000 1.0000
v 0.464438 -0.000000 -0.333078 1.0000 1.0000 1.0000
v 0.476037 -0.000000 -0.341852 1.0000 1.0000 1.0000
v 0.487817 -0.000000 -0.349528 1.0000 1.0000 1.0000
v 0.499750 -0.000000 -0.356125 1.0000 1.0000 1.0000
v 0.511808 -0.000000 -0.361659 1.0000 1.0000 1.0000
v 0.523963 -0.000000 -0.366148 1.0000 1.0000 1.0000
v 0.536187 -0.000000 -0.369609 1.0000 1.0000 1.0000
v 0.548454 -0.000000 -0.372060 1.0000 1.0000 1.0000
v 0.560734 -0.000000 -0.373518 1.0000 1.0000 1.0000
v 0.573000 -0.000000 -0.374000 1.0000 1.0000 1.0000
v 0.585938 -0.000000 -0.373515 1.0000 1.0000 1.0000
v 0.597750 -0.000000 -0.372037 1.0000 1.0000 1.0000
v 0.608438 -0.000000 -0.369531 1.0000 1.0000 1.0000
v 0.618000 -0.000000 -0.365963 1.0000 1.0000 1.0000
v 0.626438 -0.000000 -0.361297 1.0000 1.0000 1.0000
v 0.633750 -0.000000 -0.355500 1.0000 1.0000 1.0000
v 0.639938 -0.000000 -0.348536 1.0000 1.0000 1.0000
v 0.645000 -0.000000 -0.340370 1.0000 1.0000 1.0000
v 0.648938 -0.000000 -0.330969 1.0000 1.0000 1.0000
v 0.651750 -0.000000 -0.320296 1.0000 1.0000 1.0000
v 0.653438 -0.000000 -0.308318 1.0000 1.0000 1.0000
v 0.654000 -0.000000 -0.295000 1.0000 1.0000 1.0000
v 0.654000 -0.000000 -0.271000 1.0000 1.0000 1.0000
v 0.575000 -0.000000 -0.243000 1.0000 1.0000 1.0000
v 0.556865 -0.000000 -0.236444 1.0000 1.0000 1.0000
v 0.538667 -0.000000 -0.229634 1.0000 1.0000 1.0000
v 0.520719 -0.000000 -0.222359 1.0000 1.0000 1.0000
v 0.503333 -0.000000 -0.214407 1.0000 1.0000 1.0000
v 0.486823 -0.000000 -0.205567 1.0000 1.0000 1.0000
v 0.471500 -0.000000 -0.195625 1.0000 1.0000 1.0000
v 0.457677 -0.000000 -0.184371 1.0000 1.0000 1.0000
v 0.445667 -0.000000 -0.171593 1.0000 1.0000 1.0000
v 0.435781 -0.000000 -0.157078 1.0000 1.0000 1.0000
v 0.428333 -0.000000 -0.140616 1.0000 1.0000 1.0000
v 0.423635 -0.000000 -0.121994 1.0000 1.0000 1.0000
v 0.422000 -0.000000 -0.101000 1.0000 1.0000 1.0000
v 0.422904 -0.000000 -0.086652 1.0000 1.0000 1.0000
v 0.425565 -0.000000 -0.072713 1.0000 1.0000 1.0000
v 0.429906 -0.000000 -0.059344 1.0000 1.0000 1.0000
v 0.435852 -0.000000 -0.046704 1.0000 1.0000 1.0000
v 0.443325 -0.000000 -0.034953 1.0000 1.0000 1.0000
v 0.452250 -0.000000 -0.024250 1.0000 1.0000 1.0000
v 0.462550 -0.000000 -0.014756 1.0000 1.0000 1.0000
v 0.474148 -0.000000 -0.006630 1.0000 1.0000 1.0000
v 0.486969 -0.000000 -0.000031 1.0000 1.0000 1.0000
v 0.500935 0.000000 0.004880 1.0000 1.0000 1.0000
v 0.515971 0.000000 0.007943 1.0000 1.0000 1.0000
v 0.532000 0.000000 0.009000 1.0000 1.0000 1.0000
v 0.542249 0.000000 0.008687 1.0000 1.0000 1.0000
v 0.552491 0.000000 0.007745 1.0000 1.0000 1.0000
v 0.562719 0.000000 0.006172 1.0000 1.0000 1.0000
v 0.572926 0.000000 0.003963 1.0000 1.0000 1.0000
v 0.583105 0.000000 0.001115 1.0000 1.0000 1.0000
v 0.593250 -0.000000 -0.002375 1.0000 1.0000 1.0000
v 0.603353 -0.000000 -0.006511 1.0000 1.0000 1.0000
v 0.613407 -0.000000 -0.011296 1.0000 1.0000 1.0000
v 0.623406 -0.000000 -0.016734 1.0000 1.0000 1.0000
v 0.633343 -0.000000 -0.022829 1.0000 1.0000 1.0000
v 0.643209 -0.000000 -0.029583 1.0000 1.0000 1.0000
v 0.653000 -0.000000 -0.037000 1.0000 1.0000 1.0000
v 0.655274 -0.000000 -0.029373 1.0000 1.0000 1.0000
v 0.658107 -0.000000 -0.022481 1.0000 1.0000 1.0000
v 0.661516 -0.000000 -0.016312 1.0000 1.0000 1.0000
v 0.665519 -0.000000 -0.010852 1.0000 1.0000 1.0000
v 0.670133 -0.000000 -0.006086 1.0000 1.0000 1.0000
v 0.675375 -0.000000 -0.002000 1.0000 1.0000 1.0000
v 0.681263 0.000000 0.001419 1.0000 1.0000 1.0000
v 0.687815 0.000000 0.004185 1.0000 1.0000 1.0000
v 0.695047 0.000000 0.006313 1.0000 1.0000 1.0000
v 0.702977 0.000000 0.007815 1.0000 1.0000 1.0000
v 0.711622 0.000000 0.008706 1.0000 1.0000 1.0000
v 0.721000 0.000000 0.009000 1.0000 1.0000 1.0000
v 0.727791 0.000000 0.008827 1.0000 1.0000 1.0000
v 0.734245 0.000000 0.008282 1.0000 1.0000 1.0000
v 0.740484 0.000000 0.007328 1.0000 1.0000 1.0000
v 0.746630 0.000000 0.005926 1.0000 1.0000 1.0000
v 0.752803 0.000000 0.004038 1.0000 1.0000 1.0000
v 0.759125 0.000000 0.001625 1.0000 1.0000 1.0000
v 0.765718 -0.000000 -0.001350 1.0000 1.0000 1.0000
v 0.772704 -0.000000 -0.004926 1.0000 1.0000 1.0000
v 0.780203 -0.000000 -0.009141 1.0000 1.0000 1.0000
v 0.788338 -0.000000 -0.014032 1.0000 1.0000 1.0000
v 0.797230 -0.000000 -0.019639 1.0000 1.0000 1.0000
v 0.807000 -0.000000 -0.026000 1.0000 1.0000 1.0000
v 0.654000 -0.000000 -0.091000 1.0000 1.0000 1.0000
v 0.647958 -0.000000 -0.085440 1.0000 1.0000 1.0000
v 0.641833 -0.000000 -0.080273 1.0000 1.0000 1.0000
v 0.635625 -0.000000 -0.075516 1.0000 1.0000 1.0000
v 0.629333 -0.000000 -0.071185 1.0000 1.0000 1.0000
v 0.622958 -0.000000 -0.067299 1.0000 1.0000 1.0000
v 0.616500 -0.000000 -0.063875 1.0000 1.0000 1.0000
v 0.609958 -0.000000 -0.060930 1.0000 1.0000 1.0000
v 0.603333 -0.000000 -0.058481 1.0000 1.0000 1.0000
v 0.596625 -0.000000 -0.056547 1.0000 1.0000 1.0000
v 0.589833 -0.000000 -0.055144 1.0000 1.0000 1.0000
v 0.582958 -0.000000 -0.054289 1.0000 1.0000 1.0000
v 0.576000 -0.000000 -0.054000 1.0000 1.0000 1.0000
v 0.566968 -0.000000 -0.054533 1.0000 1.0000 1.0000
v 0.558412 -0.000000 -0.056097 1.0000 1.0000 1.0000
v 0.550391 -0.000000 -0.058641 1.0000 1.0000 1.0000
v 0.542963 -0.000000 -0.062111 1.0000 1.0000 1.0000
v 0.536188 -0.000000 -0.066457 1.0000 1.0000 1.0000
v 0.530125 -0.000000 -0.071625 1.0000 1.0000 1.0000
v 0.524833 -0.000000 -0.077564 1.0000 1.0000 1.0000
v 0.520370 -0.000000 -0.084222 1.0000 1.0000 1.0000
v 0.516797 -0.000000 -0.091547 1.0000 1.0000 1.0000
v 0.514171 -0.000000 -0.099486 1.0000 1.0000 1.0000
v 0.512553 -0.000000 -0.107988 1.0000 1.0000 1.0000
v 0.512000 -0.000000 -0.117000 1.0000 1.0000 1.0000
v 0.513343 -0.000000 -0.129703 1.0000 1.0000 1.0000
v 0.517241 -0.000000 -0.141375 1.0000 1.0000 1.0000
v 0.523500 -0.000000 -0.152109 1.0000 1.0000 1.0000
v 0.531926 -0.000000 -0.162000 1.0000 1.0000 1.0000
v 0.542324 -0.000000 -0.171141 1.0000 1.0000 1.0000
v 0.554500 -0.000000 -0.179625 1.0000 1.0000 1.0000
v 0.568259 -0.000000 -0.187547 1.0000 1.0000 1.0000
v 0.583407 -0.000000 -0.195000 1.0000 1.0000 1.0000
v 0.599750 -0.000000 -0.202078 1.0000 1.0000 1.0000
v 0.617093 -0.000000 -0.208875 1.0000 1.0000 1.0000
v 0.635241 -0.000000 -0.215484 1.0000 1.0000 1.0000
v 0.654000 -0.000000 -0.222000 1.0000 1.0000 1.0000
v 0.069000 -0.000000 -0.449000 1.0000 1.0000 1.0000
v 0.069000 0.000000 0.000000 1.0000 1.0000 1.0000
v 0.158000 0.000000 0.000000 1.0000 1.0000 1.0000
v 0.158000 -0.000000 -0.235000 1.0000 1.0000 1.0000
v 0.158980 -0.000000 -0.253891 1.0000 1.0000 1.0000
v 0.161838 -0.000000 -0.271958 1.0000 1.0000 1.0000
v 0.166453 -0.000000 -0.289047 1.0000 1.0000 1.0000
v 0.172704 -0.000000 -0.305000 1.0000 1.0000 1.0000
v 0.180468 -0.000000 -0.319661 1.0000 1.0000 1.0000
v 0.189625 -0.000000 -0.332875 1.0000 1.0000 1.0000
v 0.200053 -0.000000 -0.344484 1.0000 1.0000 1.0000
v 0.211630 -0.000000 -0.354333 1.0000 1.0000 1.0000
v 0.224234 -0.000000 -0.362266 1.0000 1.0000 1.0000
v 0.237745 -0.000000 -0.368125 1.0000 1.0000 1.0000
v 0.252041 -0.000000 -0.371755 1.0000 1.0000 1.0000
v 0.267000 -0.000000 -0.373000 1.0000 1.0000 1.0000
v 0.272529 -0.000000 -0.372631 1.0000 1.0000 1.0000
v 0.278565 -0.000000 -0.371546 1.0000 1.0000 1.0000
v 0.285031 -0.000000 -0.369781 1.0000 1.0000 1.0000
v 0.291852 -0.000000 -0.367370 1.0000 1.0000 1.0000
v 0.298950 -0.000000 -0.364348 1.0000 1.0000 1.0000
v 0.306250 -0.000000 -0.360750 1.0000 1.0000 1.0000
v 0.313675 -0.000000 -0.356610 1.0000 1.0000 1.0000
v 0.321148 -0.000000 -0.351963 1.0000 1.0000 1.0000
v 0.328594 -0.000000 -0.346844 1.0000 1.0000 1.0000
v 0.335935 -0.000000 -0.341287 1.0000 1.0000 1.0000
v 0.343096 -0.000000 -0.335328 1.0000 1.0000 1.0000
v 0.350000 -0.000000 -0.329000 1.0000 1.0000 1.0000
v 0.397000 -0.000000 -0.406000 1.0000 1.0000 1.0000
v 0.387810 -0.000000 -0.414376 1.0000 1.0000 1.0000
v 0.378727 -0.000000 -0.422005 1.0000 1.0000 1.0000
v 0.369734 -0.000000 -0.428891 1.0000 1.0000 1.0000
v 0.360815 -0.000000 -0.435037 1.0000 1.0000 1.0000
v 0.351951 -0.000000 -0.440447 1.0000 1.0000 1.0000
v 0.343125 -0.000000 -0.445125 1.0000 1.0000 1.0000
v 0.334320 -0.000000 -0.449074 1.0000 1.0000 1.0000
v 0.325519 -0.000000 -0.452296 1.0000 1.0000 1.0000
v 0.316703 -0.000000 -0.454797 1.0000 1.0000 1.0000
v 0.307857 -0.000000 -0.456579 1.0000 1.0000 1.0000
v 0.298961 -0.000000 -0.457645 1.0000 1.0000 1.0000
v 0.290000 -0.000000 -0.458000 1.0000 1.0000 1.0000
v 0.279479 -0.000000 -0.457305 1.0000 1.0000 1.0000
v 0.268912 -0.000000 -0.455190 1.0000 1.0000 1.0000
v 0.258297 -0.000000 -0.451609 1.0000 1.0000 1.0000
v 0.247630 -0.000000 -0.446519 1.0000 1.0000 1.0000
v 0.236907 -0.000000 -0.439872 1.0000 1.0000 1.0000
v 0.226125 -0.000000 -0.431625 1.0000 1.0000 1.0000
v 0.215281 -0.000000 -0.421732 1.0000 1.0000 1.0000
v 0.204370 -0.000000 -0.410148 1.0000 1.0000 1.0000
v 0.193391 -0.000000 -0.396828 1.0000 1.0000 1.0000
v 0.182338 -0.000000 -0.381727 1.0000 1.0000 1.0000
v 0.171209 -0.000000 -0.364799 1.0000 1.0000 1.0000
v 0.160000 -0.000000 -0.346000 1.0000 1.0000 1.0000
v 0.158000 -0.000000 -0.346000 1.0000 1.0000 1.0000
v 0.158000 -0.000000 -0.449000 1.0000 1.0000 1.0000
s 0
f 2 3 4
f 1 2 4
f 1 4 5
f 5 6 1
f 54 1 6
f 6 7 54
f 7 8 54
f 8 9 54
f 9 53 54
f 11 12 51
f 50 51 12
f 46 47 15
f 50 12 13
f 49 50 13
f 13 14 49
f 48 49 14
f 14 15 48
f 15 47 48
f 53 9 10
f 52 53 10
f 10 11 52
f 11 51 52
f 42 18 41
f 18 42 17
f 43 17 42
f 20 38 19
f 38 39 19
f 39 40 19
f 18 19 40
f 41 18 40
f 28 29 27
f 26 27 29
f 29 30 26
f 25 26 30
f 30 31 25
f 24 25 31
f 31 32 24
f 24 32 23
f 32 33 23
f 33 34 23
f 22 23 34
f 34 35 22
f 21 22 35
f 35 36 21
f 36 37 21
f 20 21 37
f 38 20 37
f 46 15 16
f 45 46 16
f 44 45 16
f 16 17 44
f 17 43 44
f 1 54 55
f 107 108 78
f 78 79 107
f 106 107 79
f 79 80 106
f 105 106 80
f 80 130 105
f 104 105 130
f 103 104 130
f 130 131 103
f 102 103 131
f 131 132 102
f 101 102 132
f 132 133 101
f 100 101 133
f 71 116 70
f 142 93 141
f 116 71 115
f 72 115 71
f 94 140 141
f 141 93 94
f 115 72 114
f 73 114 72
f 138 139 96
f 95 96 139
f 139 140 95
f 140 94 95
f 114 73 113
f 73 74 113
f 112 113 74
f 74 75 112
f 111 112 75
f 110 111 75
f 75 76 110
f 109 110 76
f 76 77 109
f 108 109 77
f 78 108 77
f 100 133 134
f 99 100 134
f 134 135 99
f 98 99 135
f 135 136 98
f 136 137 98
f 97 98 137
f 137 138 97
f 138 96 97
f 69 118 68
f 144 92 143
f 68 118 119
f 119 67 68
f 145 91 144
f 92 144 91
f 65 121 122
f 122 64 65
f 67 119 120
f 66 67 120
f 120 121 66
f 121 65 66
f 145 146 90
f 91 145 90
f 125 126 62
f 126 61 62
f 57 129 56
f 59 128 129
f 58 59 129
f 129 57 58
f 61 126 127
f 60 61 127
f 127 128 60
f 128 59 60
f 81 82 154
f 82 83 154
f 153 154 83
f 83 84 153
f 64 122 123
f 123 124 64
f 63 64 124
f 124 125 63
f 125 62 63
f 153 84 152
f 151 152 84
f 84 85 151
f 150 151 85
f 85 86 150
f 149 150 86
f 86 87 149
f 148 149 87
f 87 88 148
f 147 148 88
f 88 89 147
f 146 147 89
f 90 146 89
f 118 69 117
f 116 117 69
f 70 116 69
f 130 80 154
f 93 142 143
f 143 92 93
f 81 154 80
f 181 182 225
f 225 226 181
f 180 181 226
f 226 227 180
f 179 180 227
f 227 228 179
f 178 179 228
f 228 229 178
f 177 178 229
f 229 230 177
f 176 177 230
f 230 231 176
f 231 232 176
f 175 176 232
f 174 175 232
f 191 217 190
f 218 190 217
f 240 167 239
f 190 218 189
f 219 189 218
f 168 238 239
f 239 167 168
f 189 219 188
f 219 220 188
f 187 188 220
f 221 187 220
f 170 236 237
f 169 170 237
f 237 238 169
f 238 168 169
f 187 221 186
f 221 222 186
f 185 186 222
f 222 223 185
f 184 185 223
f 223 224 184
f 183 184 224
f 182 183 224
f 225 182 224
f 174 232 233
f 173 174 233
f 233 234 173
f 172 173 234
f 234 235 172
f 171 172 235
f 235 236 171
f 236 170 171
f 242 165 241
f 166 241 165
f 215 193 194
f 194 214 215
f 216 192 193
f 193 215 216
f 243 164 242
f 165 242 164
f 213 195 196
f 196 212 213
f 244 245 161
f 162 244 161
f 214 194 195
f 195 213 214
f 244 162 243
f 162 163 243
f 164 243 163
f 198 199 210
f 209 210 199
f 203 204 205
f 202 203 207
f 206 207 203
f 203 205 206
f 252 155 251
f 209 199 200
f 208 209 200
f 200 201 208
f 201 202 208
f 202 207 208
f 251 155 250
f 249 250 155
f 155 156 249
f 248 249 156
f 156 157 248
f 212 196 197
f 211 212 197
f 197 198 211
f 198 210 211
f 248 157 247
f 157 158 247
f 246 247 158
f 158 159 246
f 159 160 246
f 245 246 160
f 161 245 160
f 192 216 191
f 217 191 216
f 241 166 240
f 167 240 166
f 302 303 304
f 304 305 302
f 305 306 302
f 298 309 310
f 297 298 310
f 344 345 411
f 343 344 411
f 411 412 343
f 342 343 412
f 412 413 342
f 341 342 413
f 340 341 413
f 413 414 340
f 339 340 414
f 414 415 339
f 338 339 415
f 337 338 415
f 415 416 337
f 336 337 416
f 416 335 336
f 302 306 307
f 307 308 302
f 301 302 308
f 300 301 308
f 308 309 300
f 299 300 309
f 309 298 299
f 355 404 354
f 404 405 354
f 354 405 353
f 405 406 353
f 419 420 332
f 420 331 332
f 313 292 293
f 403 356 357
f 357 402 403
f 291 314 315
f 315 290 291
f 317 289 316
f 402 357 358
f 358 359 402
f 401 402 359
f 359 360 401
f 360 400 401
f 422 423 329
f 290 315 316
f 316 289 290
f 404 355 356
f 356 403 404
f 331 420 421
f 330 331 421
f 421 422 330
f 422 329 330
f 292 313 314
f 314 291 292
f 353 406 352
f 406 407 352
f 351 352 407
f 350 351 407
f 407 408 350
f 349 350 408
f 408 409 349
f 348 349 409
f 347 348 409
f 409 410 347
f 346 347 410
f 345 346 410
f 411 345 410
f 335 416 417
f 334 335 417
f 417 418 334
f 333 334 418
f 418 419 333
f 419 332 333
f 297 310 311
f 296 297 311
f 295 296 311
f 311 312 295
f 294 295 312
f 312 313 294
f 313 293 294
f 397 362 363
f 396 397 363
f 363 364 396
f 395 396 364
f 318 319 287
f 288 318 287
f 370 371 369
f 395 364 365
f 394 395 365
f 393 394 365
f 392 393 365
f 391 392 365
f 365 390 391
f 426 328 425
f 321 322 283
f 283 284 321
f 284 285 321
f 320 321 285
f 285 286 320
f 319 320 286
f 287 319 286
f 382 268 381
f 268 269 381
f 381 269 380
f 379 380 269
f 378 379 269
f 269 270 378
f 377 378 270
f 270 271 377
f 376 377 271
f 267 383 384
f 266 267 384
f 384 385 266
f 265 266 385
f 264 265 385
f 254 389 253
f 255 256 389
f 389 254 255
f 388 389 259
f 258 259 389
f 257 258 389
f 389 256 257
f 264 385 386
f 263 264 386
f 386 387 263
f 262 263 387
f 261 262 387
f 387 388 261
f 260 261 388
f 388 259 260
f 383 267 382
f 268 382 267
f 376 271 375
f 271 272 375
f 374 375 272
f 373 374 272
f 372 373 272
f 371 372 272
f 369 371 272
f 368 369 272
f 367 368 272
f 272 273 367
f 366 367 273
f 365 366 273
f 273 274 365
f 274 275 365
f 390 365 275
f 275 276 390
f 276 277 390
f 426 390 277
f 277 278 426
f 328 426 278
f 327 328 278
f 326 327 278
f 278 279 326
f 325 326 279
f 279 280 325
f 324 325 280
f 280 281 324
f 323 324 281
f 281 282 323
f 322 323 282
f 283 322 282
f 400 360 361
f 399 400 361
f 398 399 361
f 361 362 398
f 362 397 398
f 329 423 424
f 424 425 329
f 425 328 329
f 318 288 317
f 289 317 288
f 428 429 430
f 427 428 430
f 427 430 431
f 431 432 427
f 480 427 432
f 432 433 480
f 433 434 480
f 434 435 480
f 435 479 480
f 437 438 477
f 476 477 438
f 472 473 441
f 476 438 439
f 475 476 439
f 439 440 475
f 474 475 440
f 440 441 474
f 441 473 474
f 479 435 436
f 478 479 436
f 436 437 478
f 437 477 478
f 468 444 467
f 444 468 443
f 469 443 468
f 446 464 445
f 464 465 445
f 465 466 445
f 444 445 466
f 467 444 466
f 454 455 453
f 452 453 455
f 455 456 452
f 451 452 456
f 456 457 451
f 450 451 457
f 457 458 450
f 450 458 449
f 458 459 449
f 459 460 449
f 448 449 460
f 460 461 448
f 447 448 461
f 461 462 447
f 462 463 447
f 446 447 463
f 464 446 463
f 472 441 442
f 471 472 442
f 470 471 442
f 442 443 470
f 443 469 470
f 427 480 481
f 483 484 485
f 485 486 535
f 525 526 497
f 497 526 496
f 526 527 496
f 496 527 495
f 527 528 495
f 494 495 528
f 528 529 494
f 493 494 529
f 529 530 493
f 492 493 530
f 530 531 492
f 491 492 531
f 490 491 531
f 531 532 490
f 489 490 532
f 532 533 489
f 488 489 533
f 487 488 533
f 533 534 487
f 486 487 534
f 535 486 534
f 485 535 536
f 536 539 485
f 483 485 539
f 539 482 483
f 524 498 523
f 523 498 499
f 499 500 523
f 500 522 523
f 503 504 520
f 504 519 520
f 522 500 501
f 501 502 522
f 521 522 502
f 502 503 521
f 503 520 521
f 506 507 517
f 510 511 512
f 510 512 513
f 517 507 508
f 516 517 508
f 508 509 516
f 515 516 509
f 509 510 515
f 514 515 510
f 510 513 514
f 519 504 505
f 518 519 505
f 505 506 518
f 506 517 518
f 525 497 498
f 498 524 525
f 539 536 537
f 537 538 539
f 540 541 542
f 540 542 547
f 542 545 547
f 546 547 545
f 545 542 544
f 543 544 542
f 597 598 599
f 599 600 597
f 600 601 597
f 593 604 605
f 592 593 605
f 639 640 706
f 638 639 706
f 706 707 638
f 637 638 707
f 707 708 637
f 636 637 708
f 635 636 708
f 708 709 635
f 634 635 709
f 709 710 634
f 633 634 710
f 632 633 710
f 710 711 632
f 631 632 711
f 711 630 631
f 597 601 602
f 602 603 597
f 596 597 603
f 595 596 603
f 603 604 595
f 594 595 604
f 604 593 594
f 650 699 649
f 699 700 649
f 649 700 648
f 700 701 648
f 714 715 627
f 715 626 627
f 608 587 588
f 698 651 652
f 652 697 698
f 586 609 610
f 610 585 586
f 612 584 611
f 697 652 653
f 653 654 697
f 696 697 654
f 654 655 696
f 655 695 696
f 717 718 624
f 585 610 611
f 611 584 585
f 699 650 651
f 651 698 699
f 626 715 716
f 625 626 716
f 716 717 625
f 717 624 625
f 587 608 609
f 609 586 587
f 648 701 647
f 701 702 647
f 646 647 702
f 645 646 702
f 702 703 645
f 644 645 703
f 703 704 644
f 643 644 704
f 642 643 704
f 704 705 642
f 641 642 705
f 640 641 705
f 706 640 705
f 630 711 712
f 629 630 712
f 712 713 629
f 628 629 713
f 713 714 628
f 714 627 628
f 592 605 606
f 591 592 606
f 590 591 606
f 606 607 590
f 589 590 607
f 607 608 589
f 608 588 589
f 692 657 658
f 691 692 658
f 658 659 691
f 690 691 659
f 613 614 582
f 583 613 582
f 665 666 664
f 690 659 660
f 689 690 660
f 688 689 660
f 687 688 660
f 686 687 660
f 660 685 686
f 721 623 720
f 616 617 578
f 578 579 616
f 579 580 616
f 615 616 580
f 580 581 615
f 614 615 581
f 582 614 581
f 677 563 676
f 563 564 676
f 676 564 675
f 674 675 564
f 673 674 564
f 564 565 673
f 672 673 565
f 565 566 672
f 671 672 566
f 562 678 679
f 561 562 679
f 679 680 561
f 560 561 680
f 559 560 680
f 549 684 548
f 550 551 684
f 684 549 550
f 683 684 554
f 553 554 684
f 552 553 684
f 684 551 552
f 559 680 681
f 558 559 681
f 681 682 558
f 557 558 682
f 556 557 682
f 682 683 556
f 555 556 683
f 683 554 555
f 678 562 677
f 563 677 562
f 671 566 670
f 566 567 670
f 669 670 567
f 668 669 567
f 667 668 567
f 666 667 567
f 664 666 567
f 663 664 567
f 662 663 567
f 567 568 662
f 661 662 568
f 660 661 568
f 568 569 660
f 569 570 660
f 685 660 570
f 570 571 685
f 571 572 685
f 721 685 572
f 572 573 721
f 623 721 573
f 622 623 573
f 621 622 573
f 573 574 621
f 620 621 574
f 574 575 620
f 619 620 575
f 575 576 619
f 618 619 576
f 576 577 618
f 617 618 577
f 578 617 577
f 695 655 656
f 694 695 656
f 693 694 656
f 656 657 693
f 657 692 693
f 624 718 719
f 719 720 624
f 720 623 624
f 613 583 612
f 584 612 583
f 723 724 725
f 722 723 725
f 722 725 726
f 726 727 722
f 775 722 727
f 727 728 775
f 728 729 775
f 729 730 775
f 730 774 775
f 732 733 772
f 771 772 733
f 767 768 736
f 771 733 734
f 770 771 734
f 734 735 770
f 769 770 735
f 735 736 769
f 736 768 769
f 774 730 731
f 773 774 731
f 731 732 773
f 732 772 773
f 763 739 762
f 739 763 738
f 764 738 763
f 741 759 740
f 759 760 740
f 760 761 740
f 739 740 761
f 762 739 761
f 749 750 748
f 747 748 750
f 750 751 747
f 746 747 751
f 751 752 746
f 745 746 752
f 752 753 745
f 745 753 744
f 753 754 744
f 754 755 744
f 743 744 755
f 755 756 743
f 742 743 756
f 756 757 742
f 757 758 742
f 741 742 758
f 759 741 758
f 767 736 737
f 766 767 737
f 765 766 737
f 737 738 765
f 738 764 765
f 722 775 776
